<svg xmlns="http://www.w3.org/2000/svg" width="30.232" height="30.234" viewBox="0 0 30.232 30.234">
  <g id="Componente_292_1" data-name="Componente 292 – 1" transform="translate(1 1)">
    <path id="Trazado_6885" data-name="Trazado 6885" d="M630.923,404.5a.776.776,0,0,0,.776.775h4.85a.776.776,0,0,0,.776-.775v-1.5a12.158,12.158,0,0,0,2.912-1.21l1.061,1.061a.775.775,0,0,0,1.1,0h0l3.428-3.43a.776.776,0,0,0,0-1.1l-1.061-1.061a12.094,12.094,0,0,0,1.2-2.909h1.5a.775.775,0,0,0,.775-.776v-4.849a.775.775,0,0,0-.775-.775h-1.5a12.144,12.144,0,0,0-1.206-2.912l1.055-1.054a.777.777,0,0,0,0-1.1h0l-3.43-3.428a.776.776,0,0,0-1.1,0l-1.054,1.054a12.175,12.175,0,0,0-2.911-1.207v-1.487a.777.777,0,0,0-.775-.776H631.7a.777.777,0,0,0-.776.776v1.489a12.115,12.115,0,0,0-2.911,1.206l-1.054-1.054a.776.776,0,0,0-1.1,0l-3.43,3.428a.775.775,0,0,0,0,1.1h0l1.055,1.054a12.077,12.077,0,0,0-1.207,2.912h-1.5a.774.774,0,0,0-.775.774v4.85a.774.774,0,0,0,.773.776h1.5a12.072,12.072,0,0,0,1.207,2.911l-1.061,1.061a.776.776,0,0,0,0,1.1l3.428,3.43a.776.776,0,0,0,.548.232h0a.771.771,0,0,0,.548-.232l1.062-1.061a12.121,12.121,0,0,0,2.911,1.206Z" transform="translate(-620.009 -377.04)" fill="none" stroke="#0052cb" stroke-linecap="round" stroke-linejoin="round" stroke-miterlimit="10" stroke-width="2"/>
    <path id="Trazado_6886" data-name="Trazado 6886" d="M627.135,389.388a5.221,5.221,0,1,1,5.221,5.221,5.22,5.22,0,0,1-5.221-5.221Z" transform="translate(-618.239 -375.27)" fill="none" stroke="#0052cb" stroke-linecap="round" stroke-linejoin="round" stroke-miterlimit="10" stroke-width="1"/>
  </g>
</svg>
