<svg xmlns="http://www.w3.org/2000/svg" width="168.658" height="35.774" viewBox="0 0 168.658 35.774">
  <g id="Grupo_9648" data-name="Grupo 9648" transform="translate(-318 -18)">
    <path id="Trazado_1535" data-name="Trazado 1535" d="M75.818,82.17H68.327a1.354,1.354,0,1,0,0,2.708h7.491a1.354,1.354,0,1,0,0-2.708" transform="translate(256.823 -45.553)" fill="#0052cb"/>
    <path id="Trazado_1536" data-name="Trazado 1536" d="M64.485,90.837H56.994a1.354,1.354,0,1,0,0,2.708h7.491a1.354,1.354,0,1,0,0-2.708" transform="translate(262.368 -49.818)" fill="#0052cb"/>
    <path id="Trazado_1537" data-name="Trazado 1537" d="M113.644,101.735a1.587,1.587,0,1,0,1.6,1.587,1.591,1.591,0,0,0-1.6-1.587" transform="translate(234.768 -55.184)" fill="#0052cb"/>
    <path id="Trazado_1538" data-name="Trazado 1538" d="M152.28,101.735a1.587,1.587,0,1,0,1.6,1.587,1.591,1.591,0,0,0-1.6-1.587" transform="translate(215.866 -55.184)" fill="#0052cb"/>
    <path id="Trazado_1539" data-name="Trazado 1539" d="M135.98,80.427c-.613-4.534-5.443-5.992-8.754-6.187a16.706,16.706,0,0,0-30.166.33c-3.21.451-7.221,2.1-7.713,6.221a9.934,9.934,0,0,0-.049,3.494,3.148,3.148,0,0,0,.712,1.373,3.219,3.219,0,0,0,1.805,1,32.285,32.285,0,0,0,4.742.139l.527-.005a5.67,5.67,0,0,0,10.924-.27c2.2-.074,3.963-.14,4.7-.168.642.015,2.055.045,3.856.079a5.67,5.67,0,0,0,11.014.118c.444,0,.875,0,1.287-.007a32.284,32.284,0,0,0,4.728-.21,3.229,3.229,0,0,0,1.8-1.032,3.161,3.161,0,0,0,.693-1.392,9.923,9.923,0,0,0-.106-3.485m-33.568,8.39a3.555,3.555,0,1,1,3.575-3.555,3.565,3.565,0,0,1-3.575,3.555m19.751,0a3.555,3.555,0,1,1,3.575-3.555,3.565,3.565,0,0,1-3.575,3.555m11.4-5.477a.642.642,0,0,1-.12.271.675.675,0,0,1-.3.189,38.955,38.955,0,0,1-4.294.172c-.391,0-.8,0-1.22.006a5.671,5.671,0,0,0-11.04-.118c-1.925-.036-3.386-.069-3.9-.08-.575.022-2.359.09-4.652.167a5.671,5.671,0,0,0-11.109.275l-.393,0a38.777,38.777,0,0,1-4.3-.1.679.679,0,0,1-.3-.184.636.636,0,0,1-.125-.27,9.219,9.219,0,0,1,.1-2.523c.439-4.07,6.961-4.135,6.961-4.135a14.1,14.1,0,0,1,26.618-.208l.9-.008s6.521-.037,7.025,4.025a9.21,9.21,0,0,1,.141,2.521" transform="translate(245.967 -37.043)" fill="#0052cb"/>
    <path id="Trazado_1540" data-name="Trazado 1540" d="M6.025,9.14v9.021h2.21L14.7,9.246h7.512L13.154,20.9l9.053,11.954H14.7L8.575,24.09H6.025v8.766H0V9.14Z" transform="translate(395.163 18.568)" fill="#0052cb"/>
    <path id="Trazado_1541" data-name="Trazado 1541" d="M19.14,21.1a13.326,13.326,0,0,1,.818-4.686,12.3,12.3,0,0,1,2.253-3.793,10.7,10.7,0,0,1,3.358-2.561,9.338,9.338,0,0,1,4.155-.935,8.779,8.779,0,0,1,4.006.924,10.451,10.451,0,0,1,3.188,2.465V9.226h6.035L42.941,32.9H36.906V29.617A9.753,9.753,0,0,1,33.718,32.1,9.037,9.037,0,0,1,29.712,33a9.237,9.237,0,0,1-4.155-.946,10.752,10.752,0,0,1-3.347-2.54,11.81,11.81,0,0,1-2.242-3.772A12.946,12.946,0,0,1,19.14,21.1Zm6.035.011a6.016,6.016,0,0,0,.436,2.274,5.523,5.523,0,0,0,1.233,1.859,5.944,5.944,0,0,0,1.838,1.254,5.569,5.569,0,0,0,2.3.457,5.646,5.646,0,0,0,2.274-.457,5.872,5.872,0,0,0,3.113-3.113,5.632,5.632,0,0,0,.457-2.263,5.785,5.785,0,0,0-.457-2.3,5.817,5.817,0,0,0-3.113-3.135,5.646,5.646,0,0,0-2.274-.457,5.569,5.569,0,0,0-2.3.457,6.071,6.071,0,0,0-1.838,1.254,5.508,5.508,0,0,0-1.233,1.881A6.07,6.07,0,0,0,25.175,21.106Z" transform="translate(396.141 18.568)" fill="#0052cb"/>
    <path id="Trazado_1542" data-name="Trazado 1542" d="M50.453,9.245v3.336a8.976,8.976,0,0,1,2.582-2.433,6.713,6.713,0,0,1,3.645-.988l2,6.014a8.987,8.987,0,0,0-4.208.478,6.783,6.783,0,0,0-1.955,1.137,6.527,6.527,0,0,0-1.456,1.689,4.316,4.316,0,0,0-.627,2.029L50.442,32.9H44.46l.011-23.653Z" transform="translate(397.497 18.57)" fill="#0052cb"/>
    <path id="Trazado_1543" data-name="Trazado 1543" d="M64.38,9.261,69.4,24.423,74.623,9.271h6.418L72.477,33.019H66.006L57.92,9.25Z" transform="translate(398.049 18.576)" fill="#0052cb"/>
    <path id="Trazado_1544" data-name="Trazado 1544" d="M79.87,3.675a3.513,3.513,0,0,1,1.085-2.61A3.513,3.513,0,0,1,83.51,0a3.617,3.617,0,0,1,3.683,3.675A3.424,3.424,0,0,1,86.13,6.189,3.545,3.545,0,0,1,83.5,7.254a3.5,3.5,0,0,1-2.556-1.065A3.394,3.394,0,0,1,79.87,3.675Zm6.625,6.2L86.474,33.6l-6.045-.011L80.45,9.874Z" transform="translate(399.465 18)" fill="#0052cb"/>
  </g>
</svg>
