<svg xmlns="http://www.w3.org/2000/svg" width="32.182" height="26.775" viewBox="0 0 32.182 26.775">
  <g id="Grupo_8364" data-name="Grupo 8364" transform="translate(-1311.739 -24.833)">
    <rect id="Rectángulo_3700" data-name="Rectángulo 3700" width="5.257" height="4.205" rx="1.102" transform="translate(1314.8 46.903)" stroke-width="1" stroke="#303b4b" stroke-linecap="round" stroke-linejoin="round" stroke-miterlimit="10" fill="none"/>
    <rect id="Rectángulo_3701" data-name="Rectángulo 3701" width="5.257" height="4.205" rx="1.102" transform="translate(1335.826 46.903)" stroke-width="1" stroke="#303b4b" stroke-linecap="round" stroke-linejoin="round" stroke-miterlimit="10" fill="none"/>
    <path id="Trazado_4549" data-name="Trazado 4549" d="M288.834,309.013a20.7,20.7,0,0,0-6.308-9.462,25.35,25.35,0,0,0-6.48-1.034l-.013-.017c-.147,0-.289,0-.433.006s-.286-.006-.433-.006l-.014.017a25.346,25.346,0,0,0-6.479,1.034,20.7,20.7,0,0,0-6.308,9.462,14.913,14.913,0,0,0,.284,10.915h4.688s5.541,1.7,7.644,1.7h1.236c2.1,0,7.644-1.7,7.644-1.7h4.687A14.91,14.91,0,0,0,288.834,309.013Z" transform="translate(1052.249 -273.167)" fill="none" stroke="#303b4b" stroke-linecap="round" stroke-linejoin="round" stroke-miterlimit="10" stroke-width="1"/>
    <path id="Trazado_4550" data-name="Trazado 4550" d="M262.5,310.5s5.257,0,5.257,3.154" transform="translate(1052.3 -272.551)" fill="none" stroke="#303b4b" stroke-linecap="round" stroke-miterlimit="10" stroke-width="1"/>
    <path id="Trazado_4551" data-name="Trazado 4551" d="M287.757,310.5s-5.257,0-5.257,3.154" transform="translate(1053.326 -272.551)" fill="none" stroke="#303b4b" stroke-linecap="round" stroke-miterlimit="10" stroke-width="1"/>
    <line id="Línea_1022" data-name="Línea 1022" x2="7.359" transform="translate(1324.262 41.103)" fill="none" stroke="#303b4b" stroke-linecap="round" stroke-miterlimit="10" stroke-width="1"/>
    <path id="Trazado_4552" data-name="Trazado 4552" d="M263.5,307.5l11.564,1.051L287.68,307.5" transform="translate(1052.351 -272.705)" fill="none" stroke="#303b4b" stroke-linecap="round" stroke-linejoin="round" stroke-miterlimit="10" stroke-width="1"/>
    <path id="Trazado_4553" data-name="Trazado 4553" d="M286.083,305.221s2.541-1.756,3.592-.7-2.1,3.154-2.1,3.154" transform="translate(1053.51 -272.875)" fill="none" stroke="#303b4b" stroke-linecap="round" stroke-linejoin="round" stroke-miterlimit="10" stroke-width="1"/>
    <path id="Trazado_4554" data-name="Trazado 4554" d="M263.89,305.221s-2.541-1.756-3.592-.7,2.1,3.154,2.1,3.154" transform="translate(1052.176 -272.875)" fill="none" stroke="#303b4b" stroke-linecap="round" stroke-linejoin="round" stroke-miterlimit="10" stroke-width="1"/>
  </g>
</svg>
