<svg xmlns="http://www.w3.org/2000/svg" xmlns:xlink="http://www.w3.org/1999/xlink" width="77.094" height="77.094" viewBox="0 0 77.094 77.094">
  <defs>
    <linearGradient id="linear-gradient" x1="1.065" y1="1.113" x2="-0.154" y2="-0.21" gradientUnits="objectBoundingBox">
      <stop offset="0" stop-color="#00ef81"/>
      <stop offset="1" stop-color="#1d66ce"/>
    </linearGradient>
  </defs>
  <g id="Grupo_9232" data-name="Grupo 9232" transform="translate(0)">
    <path id="Trazado_7034" data-name="Trazado 7034" d="M2445.2,1460.3l4.921-7.675a3.286,3.286,0,0,0-1.257-4.691l-8.1-4.188.422-9.1a3.285,3.285,0,0,0-3.434-3.435l-9.107.424-4.186-8.1a3.286,3.286,0,0,0-4.692-1.257l-7.675,4.919-7.675-4.919a3.287,3.287,0,0,0-4.693,1.257l-4.186,8.1-9.106-.424a3.285,3.285,0,0,0-3.435,3.435l.423,9.1-8.1,4.188a3.286,3.286,0,0,0-1.257,4.691l4.921,7.675-4.921,7.675a3.288,3.288,0,0,0,1.257,4.693l8.1,4.186-.423,9.107a3.285,3.285,0,0,0,3.435,3.435l9.106-.424,4.186,8.1a3.286,3.286,0,0,0,4.693,1.258l7.675-4.919,7.675,4.919a3.285,3.285,0,0,0,4.692-1.258l4.186-8.1,9.107.424a3.323,3.323,0,0,0,2.476-.959,3.283,3.283,0,0,0,.958-2.476l-.422-9.107,8.1-4.186a3.288,3.288,0,0,0,1.257-4.693Z" transform="translate(-2373.55 -1421.752)" fill="url(#linear-gradient)"/>
    <path id="Trazado_7035" data-name="Trazado 7035" d="M2378.383,1457.254c6.732,7.037,21.84,7.06,34.67,8.095,13.123,1.058,24.637-1.469,32.22-2.977l-1.539-2.38,4.727-7.308a3.115,3.115,0,0,0-1.208-4.468l-7.776-3.988.406-8.671a3.111,3.111,0,0,0-.92-2.358,3.178,3.178,0,0,0-2.379-.913l-8.744.4-4.02-7.713a3.171,3.171,0,0,0-4.505-1.2l-7.372,4.685-7.369-4.685a3.171,3.171,0,0,0-4.506,1.2l-4.019,7.713-8.745-.4a3.149,3.149,0,0,0-2.379.913,3.112,3.112,0,0,0-.92,2.358l.407,8.671-7.777,3.988a3.114,3.114,0,0,0-1.207,4.468Z" transform="translate(-2373.55 -1421.752)" fill="#fff" opacity="0.2"/>
    <path id="Trazado_7036" data-name="Trazado 7036" d="M2431.809,1460.3a19.712,19.712,0,1,1-19.713-19.712A19.714,19.714,0,0,1,2431.809,1460.3Z" transform="translate(-2373.55 -1421.752)" fill="#fff"/>
    <path id="Trazado_7037" data-name="Trazado 7037" d="M2403.236,1461.962l5.7,5.7,13.738-13.737" transform="translate(-2373.55 -1421.752)" fill="none" stroke="#0052cb" stroke-linecap="round" stroke-linejoin="round" stroke-width="4"/>
  </g>
</svg>
