<svg xmlns="http://www.w3.org/2000/svg" width="18.193" height="16.407" viewBox="0 0 18.193 16.407">
  <path id="heart" d="M14.909,1.41A4.354,4.354,0,0,0,11.67,0,4.074,4.074,0,0,0,9.126.878,5.206,5.206,0,0,0,8.1,1.952,5.2,5.2,0,0,0,7.068.878,4.073,4.073,0,0,0,4.524,0,4.355,4.355,0,0,0,1.285,1.41,5.062,5.062,0,0,0,0,4.867,6.027,6.027,0,0,0,1.607,8.812a34.248,34.248,0,0,0,4.02,3.774c.557.475,1.188,1.013,1.844,1.586a.951.951,0,0,0,1.252,0c.656-.573,1.287-1.112,1.845-1.587a34.228,34.228,0,0,0,4.02-3.773,6.027,6.027,0,0,0,1.606-3.945A5.061,5.061,0,0,0,14.909,1.41Zm0,0" transform="translate(1 1)" fill="none" stroke="#afb3b9" stroke-width="2"/>
</svg>
