<svg xmlns="http://www.w3.org/2000/svg" width="13.833" height="17.809" viewBox="0 0 13.833 17.809">
  <g id="icon_location" data-name="icon/location" transform="translate(1 1)">
    <g id="Trazado_878" data-name="Trazado 878" transform="translate(-76)" fill="none">
      <path d="M81.917,0A5.752,5.752,0,0,0,76,5.558a5.3,5.3,0,0,0,.883,2.922l4.7,7.109a.5.5,0,0,0,.419.219h0a.5.5,0,0,0,.419-.225L87,8.405a5.3,5.3,0,0,0,.835-2.847A5.752,5.752,0,0,0,81.917,0Z" stroke="none"/>
      <path d="M 81.91659545898438 4.76837158203125e-06 C 78.65416717529297 4.76837158203125e-06 76.00000762939453 2.493184089660645 76.00000762939453 5.557704925537109 C 76.00000762939453 6.593104362487793 76.30535125732422 7.603564262390137 76.88319396972656 8.480194091796875 L 81.57978820800781 15.58964443206787 C 81.66976165771484 15.72584438323975 81.82826232910156 15.80858421325684 81.99871826171875 15.80858421325684 C 82.00003814697266 15.80858421325684 82.00129699707031 15.80858421325684 82.00263214111328 15.80858421325684 C 82.17456817626953 15.80732440948486 82.33339691162109 15.72201442718506 82.42172241210938 15.58344459533691 L 86.99861145019531 8.405104637145996 C 87.54457855224609 7.546994209289551 87.83312225341797 6.562384605407715 87.83312225341797 5.557704925537109 C 87.83312225341797 2.493184089660645 85.17897796630859 4.76837158203125e-06 81.91659545898438 4.76837158203125e-06 M 81.91659545898438 -0.999995231628418 C 85.73038482666016 -0.999995231628418 88.83312225341797 1.941774368286133 88.83312225341797 5.557704925537109 C 88.83312225341797 6.752884864807129 88.49051666259766 7.92311429977417 87.84232330322266 8.941904067993164 L 83.26491546630859 16.12106513977051 C 82.99292755126953 16.54774475097656 82.52376556396484 16.80479431152344 82.00996398925781 16.80855369567871 L 82.00629425048828 16.80858421325684 L 82.00263214111328 16.80858421325684 C 81.49016571044922 16.80858421325684 81.02164459228516 16.55896377563477 80.74542236328125 16.14086532592773 L 76.048828125 9.031394958496094 C 75.36248779296875 7.990174293518066 75.00000762939453 6.789284706115723 75.00000762939453 5.557704925537109 C 75.00000762939453 1.941774368286133 78.10277557373047 -0.999995231628418 81.91659545898438 -0.999995231628418 Z" stroke="none" fill="#0052cb"/>
    </g>
    <g id="Grupo_2084" data-name="Grupo 2084" transform="translate(5.001 4.599)">
      <g id="Grupo_2083" data-name="Grupo 2083">
        <g id="Trazado_879" data-name="Trazado 879" transform="translate(-166 -90)" fill="none">
          <path d="M166.916,90a.845.845,0,1,0,.916.842A.882.882,0,0,0,166.916,90Z" stroke="none"/>
          <path d="M 166.9156494140625 90 C 166.4107666015625 90 165.9999847412109 90.37781524658203 165.9999847412109 90.84214019775391 C 165.9999847412109 91.30352020263672 166.4040832519531 91.68427276611328 166.9156494140625 91.68427276611328 C 167.4336090087891 91.68427276611328 167.8313293457031 91.29845428466797 167.8313293457031 90.84214019775391 C 167.8313293457031 90.37781524658203 167.4205780029297 90 166.9156494140625 90 M 166.9156494140625 89 C 167.9719543457031 89 168.8313293457031 89.82638549804688 168.8313293457031 90.84214019775391 C 168.8313293457031 91.85789489746094 167.9719543457031 92.68427276611328 166.9156494140625 92.68427276611328 C 165.8593444824219 92.68427276611328 164.9999847412109 91.85789489746094 164.9999847412109 90.84214019775391 C 164.9999847412109 89.82638549804688 165.8593444824219 89 166.9156494140625 89 Z" stroke="none" fill="#0052cb"/>
        </g>
      </g>
    </g>
  </g>
</svg>
