<svg xmlns="http://www.w3.org/2000/svg" width="23.58" height="24" viewBox="0 0 23.58 24">
  <g id="Unión_47" data-name="Unión 47" transform="translate(-21980.645 9857.155)" fill="none">
    <path d="M21983.006-9833.155a2.279,2.279,0,0,1-2.361-2.192s.521-2.713.686-3.288,1.518-1.484,2.855-2.191a17.289,17.289,0,0,1,8.268-1.991,16.854,16.854,0,0,1,8.234,1.991c1.324.732,2.756,1.528,2.947,2.191s.59,3.288.59,3.288a2.282,2.282,0,0,1-2.361,2.192Zm3.367-17.8a6.2,6.2,0,0,1,6.2-6.2,6.2,6.2,0,0,1,6.2,6.2,6.2,6.2,0,0,1-6.2,6.2A6.2,6.2,0,0,1,21986.373-9850.953Z" stroke="none"/>
    <path d="M 22001.86328125 -9834.1552734375 C 22002.58984375 -9834.1552734375 22003.185546875 -9834.65625 22003.22265625 -9835.2841796875 C 22003.072265625 -9836.2607421875 22002.80859375 -9837.8515625 22002.68359375 -9838.32421875 C 22002.64453125 -9838.3798828125 22002.48046875 -9838.5791015625 22001.8984375 -9838.962890625 C 22001.400390625 -9839.291015625 22000.763671875 -9839.6416015625 22000.203125 -9839.9521484375 C 21998.662109375 -9840.8037109375 21996.06640625 -9841.818359375 21992.453125 -9841.818359375 C 21989.609375 -9841.818359375 21986.986328125 -9841.1884765625 21984.65234375 -9839.943359375 C 21983.1484375 -9839.1474609375 21982.421875 -9838.51953125 21982.27734375 -9838.3115234375 C 21982.158203125 -9837.8564453125 21981.841796875 -9836.2705078125 21981.6484375 -9835.267578125 C 21981.6953125 -9834.6474609375 21982.28515625 -9834.1552734375 21983.005859375 -9834.1552734375 L 22001.86328125 -9834.1552734375 M 21992.57421875 -9845.751953125 C 21995.44140625 -9845.751953125 21997.775390625 -9848.0849609375 21997.775390625 -9850.953125 C 21997.775390625 -9853.8212890625 21995.44140625 -9856.1552734375 21992.57421875 -9856.1552734375 C 21989.70703125 -9856.1552734375 21987.373046875 -9853.8212890625 21987.373046875 -9850.953125 C 21987.373046875 -9848.0849609375 21989.70703125 -9845.751953125 21992.57421875 -9845.751953125 M 22001.86328125 -9833.1552734375 L 21983.005859375 -9833.1552734375 C 21981.69921875 -9833.1552734375 21980.64453125 -9834.134765625 21980.64453125 -9835.34765625 C 21980.64453125 -9835.34765625 21981.166015625 -9838.060546875 21981.330078125 -9838.6357421875 C 21981.498046875 -9839.208984375 21982.84765625 -9840.1201171875 21984.185546875 -9840.8271484375 C 21985.51953125 -9841.5390625 21988.328125 -9842.818359375 21992.453125 -9842.818359375 C 21996.580078125 -9842.818359375 21999.361328125 -9841.5595703125 22000.6875 -9840.8271484375 C 22002.01171875 -9840.0947265625 22003.443359375 -9839.298828125 22003.634765625 -9838.6357421875 C 22003.82421875 -9837.970703125 22004.224609375 -9835.34765625 22004.224609375 -9835.34765625 C 22004.224609375 -9834.134765625 22003.1640625 -9833.1552734375 22001.86328125 -9833.1552734375 Z M 21992.57421875 -9844.751953125 C 21989.150390625 -9844.751953125 21986.373046875 -9847.5283203125 21986.373046875 -9850.953125 C 21986.373046875 -9854.37890625 21989.150390625 -9857.1552734375 21992.57421875 -9857.1552734375 C 21996 -9857.1552734375 21998.775390625 -9854.37890625 21998.775390625 -9850.953125 C 21998.775390625 -9847.5283203125 21996 -9844.751953125 21992.57421875 -9844.751953125 Z" stroke="none" fill="#303b4b"/>
  </g>
</svg>
